<svg xmlns="http://www.w3.org/2000/svg" xmlns:xlink="http://www.w3.org/1999/xlink" width="500" zoomAndPan="magnify" viewBox="0 0 375 374.999991" height="500" preserveAspectRatio="xMidYMid meet" version="1.0"><defs><g/><clipPath id="fc3ab499e7"><path d="M 204 37.5 L 299.257812 37.5 L 299.257812 219 L 204 219 Z M 204 37.5 " clip-rule="nonzero"/></clipPath></defs><g fill="#242424" fill-opacity="1"><g transform="translate(0.194077, 297.022609)"><g><path d="M 43.308594 0 L 59.046875 0 L 44.609375 -24.585938 C 51.875 -28.125 56.53125 -35.019531 56.53125 -43.585938 C 56.53125 -56.160156 46.753906 -65.191406 33.714844 -65.191406 L 7.449219 -65.191406 L 7.449219 0 L 21.515625 0 L 21.515625 -22.164062 L 30.546875 -22.164062 Z M 21.515625 -52.15625 L 32.78125 -52.15625 C 38.742188 -52.15625 42.1875 -48.523438 42.1875 -43.679688 C 42.1875 -38.742188 38.742188 -35.203125 32.78125 -35.203125 L 21.515625 -35.203125 Z M 21.515625 -52.15625 "/></g></g></g><g fill="#242424" fill-opacity="1"><g transform="translate(56.442507, 297.022609)"><g><path d="M 32.039062 -65.191406 L 7.449219 -65.191406 L 7.449219 0 L 32.039062 0 C 51.222656 0 65.101562 -13.691406 65.101562 -32.597656 C 65.101562 -51.503906 51.222656 -65.191406 32.039062 -65.191406 Z M 31.757812 -13.039062 L 21.515625 -13.039062 L 21.515625 -52.0625 L 31.757812 -52.0625 C 42.933594 -52.0625 50.664062 -44.144531 50.664062 -32.597656 C 50.664062 -21.234375 42.933594 -13.039062 31.757812 -13.039062 Z M 31.757812 -13.039062 "/></g></g></g><g fill="#242424" fill-opacity="1"><g transform="translate(120.141148, 297.022609)"><g><path d="M 21.515625 -13.039062 L 21.515625 -65.191406 L 7.449219 -65.191406 L 7.449219 0 L 46.566406 0 L 46.566406 -13.039062 Z M 21.515625 -13.039062 "/></g></g></g><path fill="#ff6101" d="M 108.089844 134.675781 C 109.691406 134.6875 111.59375 134.878906 113.855469 135.277344 C 122.910156 136.824219 132.566406 139.101562 136.839844 149.878906 C 139.128906 155.675781 137.464844 159.574219 130.882812 158.582031 C 124.019531 157.546875 111.167969 155.941406 105.050781 153.703125 C 97.601562 150.972656 99.167969 142.695312 100.539062 138.488281 C 101.296875 136.136719 103.3125 134.617188 108.089844 134.675781 Z M 186.53125 52.863281 C 170.105469 52.863281 153.324219 52.789062 137.265625 55.007812 C 129.832031 56.042969 125.03125 60.425781 121.585938 65.496094 C 113.753906 77.03125 108.703125 89.195312 104.296875 101.515625 L 84.605469 101.515625 C 79.117188 101.515625 75.847656 105.78125 77.277344 111.082031 C 78.839844 116.9375 80.625 119.800781 89.207031 121.800781 L 92.492188 122.558594 C 89.925781 127.453125 88.058594 132.609375 88.058594 137.234375 L 88.058594 175.097656 C 88.058594 181.433594 92.449219 186.792969 97.546875 188.78125 L 97.546875 206.503906 C 97.546875 209.96875 100.335938 212.753906 103.800781 212.753906 L 121.5 212.753906 C 124.953125 212.753906 127.75 209.964844 127.75 206.503906 L 127.75 189.667969 L 215.839844 189.667969 L 215.839844 180.0625 C 215.839844 175.273438 218.527344 170.457031 221.875 167.023438 L 221.875 165.140625 C 220.765625 164.160156 218.089844 160.511719 216.703125 156.539062 C 213.839844 157.941406 210.699219 158.742188 207.519531 158.742188 L 165.546875 158.742188 C 157.425781 158.742188 149.441406 153.652344 146.347656 146.082031 C 144.867188 142.507812 145.585938 138.796875 148.800781 138.796875 L 215.820312 138.796875 L 215.820312 127.484375 C 204.972656 124.9375 195.742188 117.609375 192.601562 107.34375 C 190.574219 107.375 188.488281 107.429688 186.527344 107.429688 C 156.40625 107.429688 115.824219 103.386719 115.824219 103.386719 C 119.460938 92.394531 125.242188 82.507812 131.730469 72.007812 C 134.75 67.117188 139.25 64.472656 144.140625 64.136719 C 157.074219 63.246094 172.382812 62.746094 186.527344 62.722656 C 188.148438 62.734375 189.8125 62.765625 191.460938 62.78125 L 191.460938 55.292969 C 191.460938 54.476562 191.519531 53.671875 191.582031 52.867188 C 189.902344 52.863281 188.210938 52.863281 186.53125 52.863281 Z M 186.53125 52.863281 " fill-opacity="1" fill-rule="evenodd"/><g clip-path="url(#fc3ab499e7)"><path fill="#ff6101" d="M 272.714844 58.832031 L 272.714844 63.507812 C 272.714844 65.933594 270.753906 67.886719 268.332031 67.886719 L 235.242188 67.886719 C 232.816406 67.886719 230.859375 65.933594 230.859375 63.507812 L 230.859375 58.832031 C 230.859375 56.410156 232.816406 54.46875 235.242188 54.46875 L 268.332031 54.46875 C 270.753906 54.46875 272.714844 56.410156 272.714844 58.832031 Z M 299.460938 55.285156 C 299.460938 45.472656 291.5625 37.558594 281.75 37.558594 L 221.835938 37.558594 C 212.027344 37.558594 204.125 45.476562 204.125 55.285156 L 204.125 99.605469 C 204.125 109.417969 212.027344 117.316406 221.835938 117.316406 L 228.496094 117.316406 L 228.496094 152.039062 C 228.496094 153.925781 229.265625 154.785156 230.273438 155.675781 L 236.25 160.976562 C 238.996094 163.398438 238.863281 168 236.355469 170.5 L 230.335938 176.453125 C 229.125 177.652344 228.496094 178.453125 228.496094 180.0625 L 228.496094 196.15625 C 228.335938 197.785156 228.800781 199.601562 229.882812 201.179688 C 254.738281 224.597656 251.683594 223.113281 272.828125 202.183594 C 274.449219 200.566406 274.957031 198.589844 275.078125 196.445312 L 275.078125 117.316406 L 281.75 117.316406 C 291.5625 117.316406 299.460938 109.421875 299.460938 99.609375 Z M 299.460938 55.285156 " fill-opacity="1" fill-rule="nonzero"/></g><g fill="#ff6101" fill-opacity="1"><g transform="translate(168.764465, 288.251766)"><g><path d="M 29.652344 0 L 35.488281 0 L 25.585938 -16.742188 C 31.007812 -18.277344 34.722656 -22.816406 34.722656 -28.652344 C 34.722656 -35.960938 29.003906 -41.269531 21.28125 -41.269531 L 5.601562 -41.269531 L 5.601562 0 L 10.789062 0 L 10.789062 -16.09375 L 20.164062 -16.09375 Z M 10.789062 -36.316406 L 20.988281 -36.316406 C 26.058594 -36.316406 29.417969 -33.074219 29.417969 -28.652344 C 29.417969 -24.230469 26.058594 -21.046875 20.988281 -21.046875 L 10.789062 -21.046875 Z M 10.789062 -36.316406 "/></g></g></g><g fill="#ff6101" fill-opacity="1"><g transform="translate(203.368212, 288.251766)"><g><path d="M 34.78125 -15.742188 C 34.78125 -25.054688 28.414062 -32.484375 18.746094 -32.484375 C 9.492188 -32.484375 2.535156 -25.351562 2.535156 -15.917969 C 2.535156 -6.425781 9.492188 0.707031 18.746094 0.707031 C 25.644531 0.707031 31.246094 -3.125 33.957031 -9.667969 L 28.652344 -9.667969 C 26.707031 -6.25 23.167969 -4.1875 18.746094 -4.1875 C 12.734375 -4.1875 8.3125 -8.078125 7.546875 -13.972656 L 34.664062 -13.972656 C 34.722656 -14.5625 34.78125 -15.152344 34.78125 -15.742188 Z M 18.746094 -27.765625 C 24.40625 -27.765625 28.710938 -24.230469 29.773438 -18.570312 L 7.664062 -18.570312 C 8.667969 -24.113281 12.96875 -27.765625 18.746094 -27.765625 Z M 18.746094 -27.765625 "/></g></g></g><g fill="#ff6101" fill-opacity="1"><g transform="translate(237.264558, 288.251766)"><g><path d="M 20.929688 -32.484375 C 16.035156 -32.484375 11.96875 -30.359375 9.550781 -26.824219 L 8.605469 -31.835938 L 5.011719 -31.835938 L 5.011719 0 L 10.023438 0 L 10.023438 -17.332031 C 10.023438 -23.285156 14.207031 -27.945312 19.691406 -27.945312 C 25.171875 -27.945312 28.238281 -24.289062 28.238281 -17.863281 L 28.238281 0 L 33.25 0 L 33.25 -19.042969 C 33.25 -26.824219 28.535156 -32.484375 20.929688 -32.484375 Z M 20.929688 -32.484375 "/></g></g></g><g fill="#ff6101" fill-opacity="1"><g transform="translate(271.750405, 288.251766)"><g><path d="M 18.214844 -4.597656 C 13.855469 -4.597656 11.496094 -6.957031 11.496094 -11.261719 L 11.496094 -27.296875 L 21.519531 -27.296875 L 21.519531 -31.835938 L 11.496094 -31.835938 L 11.496094 -38.554688 L 10.730469 -38.554688 L 0.882812 -28.179688 L 0.882812 -27.296875 L 6.484375 -27.296875 L 6.484375 -11.082031 C 6.484375 -4.1875 10.730469 0 17.566406 0 L 21.695312 0 L 21.695312 -4.597656 Z M 18.214844 -4.597656 "/></g></g></g><g fill="#ff6101" fill-opacity="1"><g transform="translate(291.73443, 288.251766)"><g><path d="M 32.1875 -31.835938 L 31.539062 -26.941406 C 28.59375 -30.421875 24.171875 -32.484375 18.984375 -32.484375 C 9.550781 -32.484375 2.476562 -25.410156 2.476562 -15.859375 C 2.476562 -6.425781 9.550781 0.707031 18.984375 0.707031 C 24.171875 0.707031 28.535156 -1.355469 31.480469 -4.773438 L 32.011719 0 L 36.136719 0 L 36.136719 -31.835938 Z M 19.335938 -4.125 C 12.617188 -4.125 7.605469 -9.195312 7.605469 -15.917969 C 7.605469 -22.578125 12.617188 -27.648438 19.335938 -27.648438 C 26.117188 -27.648438 31.007812 -22.636719 31.007812 -15.917969 C 31.007812 -9.136719 26.117188 -4.125 19.335938 -4.125 Z M 19.335938 -4.125 "/></g></g></g><g fill="#ff6101" fill-opacity="1"><g transform="translate(329.580456, 288.251766)"><g><path d="M 5.011719 0 L 10.023438 0 L 10.023438 -43.152344 L 5.011719 -43.152344 Z M 5.011719 0 "/></g></g></g><g fill="#ff6101" fill-opacity="1"><g transform="translate(341.311416, 288.251766)"><g><path d="M 15.09375 0.707031 C 22.636719 0.707031 27.707031 -3.125 27.707031 -9.078125 C 27.707031 -16.859375 21.222656 -17.921875 15.742188 -18.804688 C 11.496094 -19.453125 7.839844 -20.101562 7.839844 -23.464844 C 7.839844 -26.234375 10.550781 -28.003906 14.855469 -28.003906 C 19.335938 -28.003906 22.046875 -26.117188 22.226562 -22.636719 L 26.941406 -22.636719 C 26.765625 -28.652344 22.167969 -32.484375 14.972656 -32.484375 C 7.78125 -32.484375 2.949219 -28.769531 2.949219 -23.285156 C 2.949219 -16.09375 9.078125 -14.972656 14.503906 -14.03125 C 18.804688 -13.324219 22.757812 -12.617188 22.757812 -8.84375 C 22.757812 -5.777344 19.632812 -3.890625 15.269531 -3.890625 C 10.789062 -3.890625 7.546875 -5.953125 7.308594 -9.726562 L 2.359375 -9.726562 C 2.652344 -3.300781 7.546875 0.707031 15.09375 0.707031 Z M 15.09375 0.707031 "/></g></g></g><g fill="#272727" fill-opacity="1"><g transform="translate(71.908626, 335.891523)"><g><path d="M 2.84375 -16.328125 L 4.03125 -16.328125 L 4.03125 -1.078125 L 13.4375 -1.078125 L 13.4375 0 L 2.84375 0 Z M 2.84375 -16.328125 "/></g></g></g><g fill="#272727" fill-opacity="1"><g transform="translate(99.6609, 335.891523)"><g><path d="M 9.78125 0.109375 C 8.175781 0.109375 6.726562 -0.25 5.4375 -0.96875 C 4.144531 -1.6875 3.128906 -2.675781 2.390625 -3.9375 C 1.648438 -5.195312 1.28125 -6.609375 1.28125 -8.171875 C 1.28125 -9.722656 1.648438 -11.128906 2.390625 -12.390625 C 3.128906 -13.648438 4.144531 -14.640625 5.4375 -15.359375 C 6.726562 -16.085938 8.175781 -16.453125 9.78125 -16.453125 C 11.375 -16.453125 12.816406 -16.09375 14.109375 -15.375 C 15.398438 -14.65625 16.414062 -13.664062 17.15625 -12.40625 C 17.894531 -11.144531 18.265625 -9.734375 18.265625 -8.171875 C 18.265625 -6.597656 17.894531 -5.179688 17.15625 -3.921875 C 16.414062 -2.660156 15.398438 -1.671875 14.109375 -0.953125 C 12.816406 -0.242188 11.375 0.109375 9.78125 0.109375 Z M 9.78125 -0.984375 C 11.144531 -0.984375 12.378906 -1.289062 13.484375 -1.90625 C 14.585938 -2.53125 15.457031 -3.390625 16.09375 -4.484375 C 16.726562 -5.585938 17.046875 -6.816406 17.046875 -8.171875 C 17.046875 -9.515625 16.726562 -10.734375 16.09375 -11.828125 C 15.457031 -12.929688 14.585938 -13.789062 13.484375 -14.40625 C 12.378906 -15.03125 11.144531 -15.34375 9.78125 -15.34375 C 8.40625 -15.34375 7.160156 -15.03125 6.046875 -14.40625 C 4.941406 -13.789062 4.066406 -12.929688 3.421875 -11.828125 C 2.785156 -10.734375 2.46875 -9.515625 2.46875 -8.171875 C 2.46875 -6.816406 2.785156 -5.585938 3.421875 -4.484375 C 4.066406 -3.390625 4.941406 -2.53125 6.046875 -1.90625 C 7.160156 -1.289062 8.40625 -0.984375 9.78125 -0.984375 Z M 9.78125 -0.984375 "/></g></g></g><g fill="#272727" fill-opacity="1"><g transform="translate(133.312757, 335.891523)"><g><path d="M 9.75 0.109375 C 8.144531 0.109375 6.703125 -0.242188 5.421875 -0.953125 C 4.140625 -1.671875 3.128906 -2.660156 2.390625 -3.921875 C 1.648438 -5.179688 1.28125 -6.597656 1.28125 -8.171875 C 1.28125 -9.734375 1.648438 -11.144531 2.390625 -12.40625 C 3.128906 -13.664062 4.140625 -14.65625 5.421875 -15.375 C 6.703125 -16.09375 8.144531 -16.453125 9.75 -16.453125 C 10.9375 -16.453125 12.023438 -16.257812 13.015625 -15.875 C 14.015625 -15.488281 14.863281 -14.925781 15.5625 -14.1875 L 14.8125 -13.40625 C 13.507812 -14.695312 11.835938 -15.34375 9.796875 -15.34375 C 8.429688 -15.34375 7.1875 -15.03125 6.0625 -14.40625 C 4.945312 -13.789062 4.066406 -12.929688 3.421875 -11.828125 C 2.785156 -10.734375 2.46875 -9.515625 2.46875 -8.171875 C 2.46875 -6.816406 2.785156 -5.585938 3.421875 -4.484375 C 4.066406 -3.390625 4.945312 -2.53125 6.0625 -1.90625 C 7.1875 -1.289062 8.429688 -0.984375 9.796875 -0.984375 C 11.816406 -0.984375 13.488281 -1.632812 14.8125 -2.9375 L 15.5625 -2.171875 C 14.863281 -1.421875 14.007812 -0.851562 13 -0.46875 C 12 -0.0820312 10.914062 0.109375 9.75 0.109375 Z M 9.75 0.109375 "/></g></g></g><g fill="#272727" fill-opacity="1"><g transform="translate(164.119754, 335.891523)"><g><path d="M 12.953125 -4.59375 L 3.46875 -4.59375 L 1.40625 0 L 0.109375 0 L 7.625 -16.328125 L 8.8125 -16.328125 L 16.328125 0 L 15.046875 0 Z M 12.5 -5.59375 L 8.21875 -15.015625 L 3.9375 -5.59375 Z M 12.5 -5.59375 "/></g></g></g><g fill="#272727" fill-opacity="1"><g transform="translate(194.670255, 335.891523)"><g><path d="M 9.75 0.109375 C 8.144531 0.109375 6.703125 -0.242188 5.421875 -0.953125 C 4.140625 -1.671875 3.128906 -2.660156 2.390625 -3.921875 C 1.648438 -5.179688 1.28125 -6.597656 1.28125 -8.171875 C 1.28125 -9.734375 1.648438 -11.144531 2.390625 -12.40625 C 3.128906 -13.664062 4.140625 -14.65625 5.421875 -15.375 C 6.703125 -16.09375 8.144531 -16.453125 9.75 -16.453125 C 10.9375 -16.453125 12.023438 -16.257812 13.015625 -15.875 C 14.015625 -15.488281 14.863281 -14.925781 15.5625 -14.1875 L 14.8125 -13.40625 C 13.507812 -14.695312 11.835938 -15.34375 9.796875 -15.34375 C 8.429688 -15.34375 7.1875 -15.03125 6.0625 -14.40625 C 4.945312 -13.789062 4.066406 -12.929688 3.421875 -11.828125 C 2.785156 -10.734375 2.46875 -9.515625 2.46875 -8.171875 C 2.46875 -6.816406 2.785156 -5.585938 3.421875 -4.484375 C 4.066406 -3.390625 4.945312 -2.53125 6.0625 -1.90625 C 7.1875 -1.289062 8.429688 -0.984375 9.796875 -0.984375 C 11.816406 -0.984375 13.488281 -1.632812 14.8125 -2.9375 L 15.5625 -2.171875 C 14.863281 -1.421875 14.007812 -0.851562 13 -0.46875 C 12 -0.0820312 10.914062 0.109375 9.75 0.109375 Z M 9 5.0625 C 8.269531 5.0625 7.65625 4.867188 7.15625 4.484375 L 7.484375 3.828125 C 7.910156 4.148438 8.414062 4.3125 9 4.3125 C 9.46875 4.3125 9.84375 4.203125 10.125 3.984375 C 10.40625 3.765625 10.546875 3.460938 10.546875 3.078125 C 10.546875 2.722656 10.410156 2.4375 10.140625 2.21875 C 9.878906 2 9.5 1.890625 9 1.890625 L 8.53125 1.890625 L 9.078125 -0.140625 L 9.84375 -0.140625 L 9.46875 1.265625 C 10.09375 1.304688 10.578125 1.492188 10.921875 1.828125 C 11.273438 2.160156 11.453125 2.59375 11.453125 3.125 C 11.453125 3.71875 11.222656 4.1875 10.765625 4.53125 C 10.304688 4.882812 9.71875 5.0625 9 5.0625 Z M 9 5.0625 "/></g></g></g><g fill="#272727" fill-opacity="1"><g transform="translate(225.477256, 335.891523)"><g><path d="M 9.78125 0.109375 C 8.175781 0.109375 6.726562 -0.25 5.4375 -0.96875 C 4.144531 -1.6875 3.128906 -2.675781 2.390625 -3.9375 C 1.648438 -5.195312 1.28125 -6.609375 1.28125 -8.171875 C 1.28125 -9.722656 1.648438 -11.128906 2.390625 -12.390625 C 3.128906 -13.648438 4.144531 -14.640625 5.4375 -15.359375 C 6.726562 -16.085938 8.175781 -16.453125 9.78125 -16.453125 C 11.375 -16.453125 12.816406 -16.09375 14.109375 -15.375 C 15.398438 -14.65625 16.414062 -13.664062 17.15625 -12.40625 C 17.894531 -11.144531 18.265625 -9.734375 18.265625 -8.171875 C 18.265625 -6.597656 17.894531 -5.179688 17.15625 -3.921875 C 16.414062 -2.660156 15.398438 -1.671875 14.109375 -0.953125 C 12.816406 -0.242188 11.375 0.109375 9.78125 0.109375 Z M 9.78125 -0.984375 C 11.144531 -0.984375 12.378906 -1.289062 13.484375 -1.90625 C 14.585938 -2.53125 15.457031 -3.390625 16.09375 -4.484375 C 16.726562 -5.585938 17.046875 -6.816406 17.046875 -8.171875 C 17.046875 -9.515625 16.726562 -10.734375 16.09375 -11.828125 C 15.457031 -12.929688 14.585938 -13.789062 13.484375 -14.40625 C 12.378906 -15.03125 11.144531 -15.34375 9.78125 -15.34375 C 8.40625 -15.34375 7.160156 -15.03125 6.046875 -14.40625 C 4.941406 -13.789062 4.066406 -12.929688 3.421875 -11.828125 C 2.785156 -10.734375 2.46875 -9.515625 2.46875 -8.171875 C 2.46875 -6.816406 2.785156 -5.585938 3.421875 -4.484375 C 4.066406 -3.390625 4.941406 -2.53125 6.046875 -1.90625 C 7.160156 -1.289062 8.40625 -0.984375 9.78125 -0.984375 Z M 11.3125 -17.84375 C 10.96875 -17.84375 10.660156 -17.921875 10.390625 -18.078125 C 10.117188 -18.242188 9.832031 -18.46875 9.53125 -18.75 C 9.269531 -18.988281 9.046875 -19.164062 8.859375 -19.28125 C 8.679688 -19.394531 8.492188 -19.453125 8.296875 -19.453125 C 7.941406 -19.453125 7.65625 -19.316406 7.4375 -19.046875 C 7.21875 -18.773438 7.09375 -18.40625 7.0625 -17.9375 L 6.296875 -17.9375 C 6.328125 -18.632812 6.507812 -19.195312 6.84375 -19.625 C 7.1875 -20.050781 7.648438 -20.265625 8.234375 -20.265625 C 8.566406 -20.265625 8.867188 -20.179688 9.140625 -20.015625 C 9.421875 -19.859375 9.707031 -19.640625 10 -19.359375 C 10.257812 -19.128906 10.476562 -18.953125 10.65625 -18.828125 C 10.84375 -18.710938 11.035156 -18.65625 11.234375 -18.65625 C 11.585938 -18.65625 11.875 -18.785156 12.09375 -19.046875 C 12.3125 -19.316406 12.4375 -19.675781 12.46875 -20.125 L 13.25 -20.125 C 13.21875 -19.445312 13.023438 -18.894531 12.671875 -18.46875 C 12.316406 -18.050781 11.863281 -17.84375 11.3125 -17.84375 Z M 11.3125 -17.84375 "/></g></g></g><g fill="#272727" fill-opacity="1"><g transform="translate(259.129111, 335.891523)"><g><path d="M 14.109375 -1.078125 L 14.109375 0 L 2.84375 0 L 2.84375 -16.328125 L 13.765625 -16.328125 L 13.765625 -15.25 L 4.03125 -15.25 L 4.03125 -8.8125 L 12.734375 -8.8125 L 12.734375 -7.765625 L 4.03125 -7.765625 L 4.03125 -1.078125 Z M 14.109375 -1.078125 "/></g></g></g><g fill="#272727" fill-opacity="1"><g transform="translate(288.840148, 335.891523)"><g><path d="M 7.140625 0.109375 C 5.941406 0.109375 4.800781 -0.09375 3.71875 -0.5 C 2.632812 -0.914062 1.789062 -1.445312 1.1875 -2.09375 L 1.71875 -2.984375 C 2.300781 -2.378906 3.078125 -1.882812 4.046875 -1.5 C 5.015625 -1.125 6.035156 -0.9375 7.109375 -0.9375 C 8.671875 -0.9375 9.847656 -1.226562 10.640625 -1.8125 C 11.429688 -2.40625 11.828125 -3.175781 11.828125 -4.125 C 11.828125 -4.851562 11.613281 -5.4375 11.1875 -5.875 C 10.769531 -6.3125 10.25 -6.644531 9.625 -6.875 C 9.007812 -7.113281 8.171875 -7.359375 7.109375 -7.609375 C 5.910156 -7.898438 4.953125 -8.1875 4.234375 -8.46875 C 3.515625 -8.75 2.898438 -9.179688 2.390625 -9.765625 C 1.890625 -10.347656 1.640625 -11.128906 1.640625 -12.109375 C 1.640625 -12.898438 1.847656 -13.625 2.265625 -14.28125 C 2.679688 -14.945312 3.320312 -15.472656 4.1875 -15.859375 C 5.050781 -16.253906 6.128906 -16.453125 7.421875 -16.453125 C 8.316406 -16.453125 9.203125 -16.316406 10.078125 -16.046875 C 10.953125 -15.785156 11.707031 -15.429688 12.34375 -14.984375 L 11.890625 -14.015625 C 11.242188 -14.472656 10.523438 -14.816406 9.734375 -15.046875 C 8.953125 -15.273438 8.179688 -15.390625 7.421875 -15.390625 C 5.910156 -15.390625 4.765625 -15.085938 3.984375 -14.484375 C 3.210938 -13.878906 2.828125 -13.09375 2.828125 -12.125 C 2.828125 -11.394531 3.035156 -10.8125 3.453125 -10.375 C 3.867188 -9.945312 4.390625 -9.613281 5.015625 -9.375 C 5.640625 -9.144531 6.488281 -8.894531 7.5625 -8.625 C 8.757812 -8.332031 9.710938 -8.046875 10.421875 -7.765625 C 11.140625 -7.484375 11.75 -7.054688 12.25 -6.484375 C 12.757812 -5.921875 13.015625 -5.160156 13.015625 -4.203125 C 13.015625 -3.410156 12.800781 -2.6875 12.375 -2.03125 C 11.945312 -1.375 11.289062 -0.851562 10.40625 -0.46875 C 9.519531 -0.0820312 8.429688 0.109375 7.140625 0.109375 Z M 7.140625 0.109375 "/></g></g></g></svg>